REM DIRINDEX 1\2\3,1\2\4,1\2\5,1\2\6
REM DIRNAME folder01,folder02,folder03,folder04,folder05,folder06
TITLE ""
FILE "174 174.mp3" MP3
  TRACK 01 AUDIO
    TITLE "0:"
    INDEX 01 00:00:00
  TRACK 02 AUDIO
    TITLE "3:cjc157_6323"
    INDEX 01 00:00:07
  TRACK 03 AUDIO
    TITLE "0:"
    INDEX 01 00:01:05
  TRACK 04 AUDIO
    TITLE "4:cjc157_6324"
    INDEX 01 00:01:54
  TRACK 05 AUDIO
    TITLE "0:"
    INDEX 01 00:03:21
  TRACK 06 AUDIO
    TITLE "5:cjc157_6325"
    INDEX 01 00:03:64
  TRACK 07 AUDIO
    TITLE "0:"
    INDEX 01 00:09:57
  TRACK 08 AUDIO
    TITLE "3:cjc157_6326"
    INDEX 01 00:10:25
  TRACK 09 AUDIO
    TITLE "0:"
    INDEX 01 00:12:11
  TRACK 10 AUDIO
    TITLE "4:cjc157_6327"
    INDEX 01 00:12:61
  TRACK 11 AUDIO
    TITLE "0:"
    INDEX 01 00:14:35
  TRACK 12 AUDIO
    TITLE "5:cjc157_6328"
    INDEX 01 00:15:09
  TRACK 13 AUDIO
    TITLE "0:"
    INDEX 01 00:19:11
  TRACK 14 AUDIO
    TITLE "3:cjc157_6329"
    INDEX 01 00:19:56
  TRACK 15 AUDIO
    TITLE "0:"
    INDEX 01 00:20:63
  TRACK 16 AUDIO
    TITLE "4:cjc157_6330"
    INDEX 01 00:21:33
  TRACK 17 AUDIO
    TITLE "0:"
    INDEX 01 00:22:62
  TRACK 18 AUDIO
    TITLE "5:cjc157_6331"
    INDEX 01 00:23:32
  TRACK 19 AUDIO
    TITLE "0:"
    INDEX 01 00:27:30
  TRACK 20 AUDIO
    TITLE "3:cjc157_6332"
    INDEX 01 00:28:04
  TRACK 21 AUDIO
    TITLE "0:"
    INDEX 01 00:29:21
  TRACK 22 AUDIO
    TITLE "4:cjc157_6333"
    INDEX 01 00:29:70
  TRACK 23 AUDIO
    TITLE "0:"
    INDEX 01 00:31:24
  TRACK 24 AUDIO
    TITLE "5:cjc157_6334"
    INDEX 01 00:31:69
  TRACK 25 AUDIO
    TITLE "0:"
    INDEX 01 00:35:33
  TRACK 26 AUDIO
    TITLE "3:cjc157_6335"
    INDEX 01 00:36:03
  TRACK 27 AUDIO
    TITLE "0:"
    INDEX 01 00:37:34
  TRACK 28 AUDIO
    TITLE "4:cjc157_6336"
    INDEX 01 00:38:08
  TRACK 29 AUDIO
    TITLE "0:"
    INDEX 01 00:39:37
  TRACK 30 AUDIO
    TITLE "5:cjc157_6337"
    INDEX 01 00:40:05
  TRACK 31 AUDIO
    TITLE "0:"
    INDEX 01 00:43:09
  TRACK 32 AUDIO
    TITLE "3:cjc157_6338"
    INDEX 01 00:43:56
  TRACK 33 AUDIO
    TITLE "0:"
    INDEX 01 00:45:35
  TRACK 34 AUDIO
    TITLE "4:cjc157_6339"
    INDEX 01 00:46:06
  TRACK 35 AUDIO
    TITLE "0:"
    INDEX 01 00:47:15
  TRACK 36 AUDIO
    TITLE "5:cjc157_6340"
    INDEX 01 00:48:00
  TRACK 37 AUDIO
    TITLE "0:"
    INDEX 01 00:51:05
  TRACK 38 AUDIO
    TITLE "3:cjc157_6341"
    INDEX 01 00:51:50
  TRACK 39 AUDIO
    TITLE "0:"
    INDEX 01 00:53:19
  TRACK 40 AUDIO
    TITLE "4:cjc157_6342"
    INDEX 01 00:53:62
  TRACK 41 AUDIO
    TITLE "0:"
    INDEX 01 00:55:10
  TRACK 42 AUDIO
    TITLE "5:cjc157_6343"
    INDEX 01 00:55:65
  TRACK 43 AUDIO
    TITLE "0:"
    INDEX 01 00:59:34
  TRACK 44 AUDIO
    TITLE "3:cjc157_6344"
    INDEX 01 01:00:02
  TRACK 45 AUDIO
    TITLE "0:"
    INDEX 01 01:01:21
  TRACK 46 AUDIO
    TITLE "4:cjc157_6345"
    INDEX 01 01:01:66
  TRACK 47 AUDIO
    TITLE "0:"
    INDEX 01 01:03:14
  TRACK 48 AUDIO
    TITLE "5:cjc157_6346"
    INDEX 01 01:03:61
  TRACK 49 AUDIO
    TITLE "0:"
    INDEX 01 01:06:30
  TRACK 50 AUDIO
    TITLE "5:cjc157_6347"
    INDEX 01 01:07:02
  TRACK 51 AUDIO
    TITLE "0:"
    INDEX 01 01:09:28
  TRACK 52 AUDIO
    TITLE "3:cjc157_6348"
    INDEX 01 01:10:02
  TRACK 53 AUDIO
    TITLE "0:"
    INDEX 01 01:11:15
  TRACK 54 AUDIO
    TITLE "4:cjc157_6349"
    INDEX 01 01:11:62
  TRACK 55 AUDIO
    TITLE "0:"
    INDEX 01 01:13:06
  TRACK 56 AUDIO
    TITLE "5:cjc157_6350"
    INDEX 01 01:13:55
  TRACK 57 AUDIO
    TITLE "0:"
    INDEX 01 01:17:20
  TRACK 58 AUDIO
    TITLE "3:cjc157_6351"
    INDEX 01 01:17:67
  TRACK 59 AUDIO
    TITLE "0:"
    INDEX 01 01:19:15
  TRACK 60 AUDIO
    TITLE "4:cjc157_6352"
    INDEX 01 01:19:62
  TRACK 61 AUDIO
    TITLE "0:"
    INDEX 01 01:21:04
  TRACK 62 AUDIO
    TITLE "5:cjc157_6353"
    INDEX 01 01:21:57
  TRACK 63 AUDIO
    TITLE "0:"
    INDEX 01 01:25:21
